<?xml version="1.0" encoding="utf-8"?>
<!-- Generator: Adobe Illustrator 27.9.0, SVG Export Plug-In . SVG Version: 6.00 Build 0)  -->
<svg version="1.1" id="katman_1" xmlns="http://www.w3.org/2000/svg" xmlns:xlink="http://www.w3.org/1999/xlink" x="0px" y="0px"
	 viewBox="0 0 500 500" style="enable-background:new 0 0 500 500;" xml:space="preserve">
<style type="text/css">
	.st0{fill:#087744;}
	.st1{fill:#E91B1D;}
	.st2{fill:#303490;}
	.st3{fill:#4CA5AB;}
	.st4{fill:#09ADEF;}
	.st5{fill:none;}
	.st6{display:none;}
</style>
<g>
	<path class="st0" d="M463.96,189.47c-0.27-0.7-0.53-1.4-0.8-2.1c0.09-0.29-0.03-0.5-0.26-0.66c-0.19-0.46-0.38-0.92-0.57-1.38
		c-0.28-1.08-0.98-2.32-1.38-3.47C425.58,94.68,334.97,30.92,239.53,37.44c-28.28,2.95-65.89,4.22-80.2,33.24
		c-0.16,0.07-0.19,0.19-0.13,0.34c-3.36,6.86-3.45,15.39-1.89,22.66c5.93,26.64,23.82,51.16,42.72,69.86
		c17.5,0.7,34.57,6.67,47.38,18.86c3.83,4.43,14.3,10.31,9.99,17c-4.31-1.37-17.18-14.9-20.67-10.81c1.62,3.24,5.5,4.51,8.11,6.86
		c3.8,3.01,15.93,13.19,12.25,18.3c-3.2,5.47-13.55-11.74-18.66-11.38c2.08,3.03,23.5,24.36,10.94,22.04
		c-6.99-5.8-13.53-12.13-21.41-16.76c-0.98-0.34-2.17-1.98-3.17-0.98c-0.97,1.15-0.41,2.04,0.51,2.76
		c4.4,5.44,18.52,14.5,18.08,21.12c-1.56,4.97-8.71-2.57-10.99-4.04c-7.13-5.72-14.84-11.1-23.66-13.81
		c-14.35-2.8-1.07,9.09-0.36,14.89c0.52,3.52,0.49,9.65-3.7,10.55c-1.54,0.08-2.02-0.16-2.7-1.59
		c-3.22-14.12-18.76-21.73-21.89-36.01c-1.43-6.46-4.63-11.87-9.09-16.69c-13.07-14.94-24.22-31.65-33.75-49.04
		c-19-32.98-21.79-82.43,13.82-105.25c75.98-44.22,186.21-27.76,252.13,28.34c0.15,0.6,0.52,0.93,1.15,0.96
		c35.82,30.06,64.28,69.54,79.69,113.8c-0.21,0.24,0.23,0.41,0.22,0.68c-0.1,0.21-0.02,0.36,0.16,0.48c0,0,0,0.02,0,0.02
		c0.03,0.49,0.4,1.06,0.52,1.6c-0.1,0.21-0.03,0.36,0.15,0.47c30.17,88.03,0.37,190.06-67.05,252.61c-0.55,0.04-0.87,0.33-1.01,0.85
		c-1.36,1.32-2.97,2.24-4.21,3.66c-0.48,0.35-0.76,1.01-1.51,0.99c-0.37-0.65,0.08-1,0.4-1.38c3.24-3.82,6.65-7.55,9.32-11.66
		c0.44-0.03,0.62-0.26,0.6-0.69c10.28-12.2,19.08-25.56,27.01-39.37c0.17-0.05,0.24-0.16,0.15-0.33c0.64-1.16,1.29-2.33,1.93-3.49
		c0.26-0.12,0.37-0.31,0.31-0.6c0,0,0.05-0.1,0.05-0.1c0.17-0.05,0.23-0.15,0.15-0.32c0.07-0.12,0.14-0.23,0.21-0.35
		c0.17-0.06,0.24-0.16,0.16-0.34c0.3-0.58,0.59-1.15,0.89-1.72c0.17-0.08,0.25-0.19,0.15-0.37c0.06-0.11,0.12-0.23,0.18-0.34
		c0.17-0.07,0.23-0.17,0.14-0.34c0.07-0.12,0.14-0.24,0.21-0.36c0.17-0.06,0.24-0.17,0.15-0.34c0.07-0.12,0.13-0.24,0.2-0.35
		c0.17-0.06,0.22-0.17,0.12-0.33c1.35-2.78,2.7-5.56,4.05-8.34c0.16-0.07,0.22-0.18,0.12-0.35c0.07-0.12,0.13-0.24,0.2-0.36
		c0.17-0.06,0.23-0.17,0.13-0.34c0.3-0.65,0.6-1.3,0.9-1.94c0.2-0.12,0.33-0.27,0.21-0.52c0.41-0.9,0.81-1.79,1.22-2.69
		c0.1-0.05,0.13-0.12,0.07-0.21c3.87-9.09,6.77-18.52,9.7-27.94c0.14-0.08,0.22-0.19,0.09-0.35c0.22-0.8,0.44-1.61,0.66-2.41
		c0.17-0.07,0.22-0.18,0.12-0.34c0.06-0.24,0.11-0.48,0.17-0.72c0.2-0.25,0.11-0.74,0.29-1.08c0.3-0.24,0.41-0.53,0.22-0.9
		c0.19-0.85,0.38-1.7,0.56-2.55c0.24-0.15,0.29-0.36,0.18-0.62c0.17-0.83,0.33-1.66,0.5-2.49c0.26-0.91,0.41-2.12,0.66-3.14
		c0.52-0.46,0.12-1.13,0.35-1.72c0.16-0.54,0.22-1.42,0.39-2.09c0.24-0.17,0.29-0.39,0.15-0.66c0.05-0.25,0.09-0.5,0.14-0.74
		c0.29-0.3,0.36-0.64,0.19-1.02c0.05-0.24,0.09-0.48,0.14-0.72c0.31-0.3,0.36-0.64,0.15-1.02c0.2-1.15,0.39-2.31,0.59-3.46
		c0.18-0.05,0.06-0.15,0.03-0.27c0.11-0.72,0.21-1.44,0.32-2.15c0.25-0.19,0.34-0.39,0.07-0.64c0.09-0.71,0.18-1.42,0.27-2.13
		c0.14-0.87,0.2-2.11,0.36-3.12c0.17-0.2-0.02-0.69,0.12-1.01c0.21-0.46,0.05-1.21,0.19-1.78c0.25-0.19,0.27-0.4,0.03-0.62
		c2.79-28.8,0.14-58.32-8.23-86.03c0.15-0.28,0.09-0.53-0.14-0.74c-0.07-0.21-0.14-0.42-0.2-0.62c0.28-0.46-0.22-0.65-0.32-1.04
		c0.25-0.46-0.25-0.65-0.32-1.06c0.12-0.3,0.03-0.53-0.21-0.72c-0.08-0.22-0.15-0.45-0.23-0.67c0.16-0.23-0.21-0.45-0.2-0.72
		c0.08-0.18,0.01-0.3-0.16-0.38c-1.03-2.99-2.05-5.98-3.08-8.97C464.21,189.69,464.05,189.59,463.96,189.47z"/>
	<path class="st1" d="M100.33,53.94c-59.21,57.08-94.41,142.74-74.89,224.7c18.84,90.5,97.29,166.6,188.84,181.05
		c32.33,5.27,65.62,2.15,96.89-7.25c25.05-6.04,34.56-19.39,35.16-45.07c-0.77-23.91-9.3-47.75-24.13-66.49
		c-0.6-1.9-2.21-2.49-3.83-3.18c-8.74-3.39-15.69-10.03-24.35-13.56c-7.68-3-16.6-2.21-24.3,0.35c-9.08,0.93-2.82-6.45,1.47-8.41
		c7.75-4.12,19.76-1.41,17.14-14.05c-3.6-12.05-10.63-22.7-16.75-33.57c-9.16-15.76-6.89-13.36-4.95-29.42
		c0.05-1.98,0.8-3.98,2.02-5.32c1.19-0.18,1.18-1.1,1.25-1.96c0.18-2.36,0.32-4.73,1.13-6.99c2.37-6.94,6.05,1.9,6.66,5.01
		c0.51,1.83,1.19,3.63,1.39,5.54c0.02,0.21,0.01,0.48,0.45,0.57c0.34-0.39,0.17-0.92,0.19-1.38c0.17-1.99,1.92-6.6,4.16-4.42
		c2.03,2.27,1.29,5.54,2.67,8.12c7.43,20.01,17.23,39.02,28.54,57.11c12.1,19.04,25.42,37.28,39.88,54.58
		c10.24,13.32,17.18,29.1,21.34,45.34c11.55,41.96-16.34,81.07-57.94,89.59c-45.35,13.12-94.47,15.28-139.97,1.72
		c-57.71-17.49-107.36-58.3-139.75-108.73C-25.57,270.55-1.23,128.86,100.01,53.6C100.12,53.71,100.22,53.83,100.33,53.94z"/>
	<path class="st2" d="M295.54,393.18c0.13-0.06,0.27-0.12,0.4-0.17c0.27,0.09,0.48,0.04,0.59-0.25c0,0,0.13-0.07,0.13-0.07
		c0.26,0.08,0.47,0.02,0.58-0.25c0,0,0.13-0.07,0.13-0.07c0.27,0.08,0.46,0,0.57-0.27c0.13-0.07,0.27-0.15,0.4-0.22
		c0.15,0.11,0.25,0.05,0.3-0.11c0.13-0.07,0.26-0.14,0.39-0.21c0.16,0.1,0.26,0.03,0.31-0.13c0.13-0.07,0.26-0.13,0.38-0.2
		c0.16,0.1,0.26,0.03,0.32-0.13c10.43-4.96,20.61-10.39,30.6-15.84c3.52,3.31,10,32.99,6.48,35.91
		c-19.53,9.33-39.33,18.21-59.78,25.35c-17.29,6.17-35.06,10.87-52.98,14.73c-25.33-3.04-50.97-10.53-73.57-22.9
		c44.08-3.38,88.34-10.5,129.18-28.37c0.28,0.09,0.49,0.02,0.62-0.25c0.12-0.06,0.23-0.12,0.35-0.17c0.8,0.27,1.13-0.43,1.75-0.73
		c0.17,0.11,0.27,0.05,0.34-0.12c0.12-0.06,0.25-0.12,0.37-0.19c0.27,0.11,0.5,0.1,0.61-0.23c0,0,0.13-0.07,0.13-0.07
		c0.27,0.1,0.48,0.06,0.6-0.24c0,0,0.12-0.06,0.12-0.06c0.28,0.09,0.48,0.01,0.6-0.26c0.12-0.07,0.24-0.14,0.36-0.2
		c0.17,0.1,0.27,0.04,0.33-0.13c0.13-0.06,0.25-0.13,0.38-0.19c0.27,0.11,0.49,0.09,0.6-0.22c0,0,0.15-0.08,0.15-0.08
		c0.27,0.1,0.47,0.04,0.59-0.23c0.13-0.07,0.26-0.14,0.39-0.21c0.16,0.1,0.25,0.04,0.31-0.12c0.29-0.12,0.59-0.24,0.88-0.36
		c0.1,0.16,0.13,0.13,0.11-0.04c0,0,0.15-0.08,0.15-0.08c0.27,0.1,0.47,0.03,0.6-0.23c0.13-0.07,0.26-0.13,0.39-0.2
		c0.16,0.11,0.26,0.04,0.32-0.11c0.14-0.06,0.28-0.12,0.41-0.17c0.26,0.1,0.47,0.04,0.57-0.24c0,0,0.15-0.08,0.15-0.08
		c0.26,0.08,0.46,0.01,0.57-0.25c0.14-0.08,0.27-0.15,0.41-0.23c0.15,0.11,0.24,0.05,0.29-0.11c0.14-0.07,0.27-0.14,0.41-0.21
		c0.15,0.1,0.25,0.04,0.3-0.12c0.13-0.07,0.26-0.14,0.4-0.21c0.16,0.1,0.26,0.04,0.32-0.12c0.13-0.06,0.25-0.13,0.38-0.19
		C295.38,393.41,295.48,393.33,295.54,393.18z"/>
	<path class="st3" d="M401,407.51c0.47-2.54,0.89-4.96,1.37-7.37c1.52-7.72,2.44-15.51,3.17-23.34c1.03-11.13,1.29-22.27,1.14-33.43
		c-0.14-10.18-0.84-20.32-2.23-30.42c-1.39-10.08-3.05-20.11-5.41-30.01c-1.77-7.42-3.82-14.76-6.03-22.07
		c-4.76-15.8-10.88-31.06-17.83-46.02c-4.41-9.5-9.19-18.8-14.4-27.87c-6.11-10.62-12.68-20.98-19.68-31.05
		c-4.42-6.36-9.09-12.55-13.8-18.7c-7.71-10.07-16.06-19.58-24.5-29.02c-3.97-4.45-8.14-8.69-12.42-12.84
		c-0.83-0.8-1.73-1.53-2.57-2.32c-0.41-0.39-0.9-0.73-1.08-1.32c0.37-0.44,0.64-0.02,0.88,0.1c2.47,1.26,4.83,2.72,7.16,4.24
		c9.74,6.36,19.05,13.33,28.15,20.55c10.53,8.35,20.33,17.51,29.56,27.28c7.76,8.21,14.92,16.91,21.46,26.12
		c5.06,7.12,9.82,14.44,14.11,22.04c8.02,14.19,14.3,29.13,19,44.75c2.75,9.14,4.89,18.42,6.6,27.8c1.18,6.49,1.87,13.04,2.62,19.58
		c0.45,3.96,0.76,7.94,0.86,11.93c0.09,3.76,0.26,7.51,0.29,11.27c0.06,9.26-0.49,18.49-1.28,27.71
		c-1.01,11.77-2.79,23.42-5.1,34.99c-1.2,6-2.65,11.96-4.1,17.92c-1.49,6.13-3.41,12.12-5.03,18.2
		C401.79,406.66,401.76,407.24,401,407.51z"/>
	<path class="st3" d="M221.98,402.97C103.25,338,57.49,217.71,99.53,89.81C89.12,209.4,123.68,328.48,221.98,402.97z"/>
	<path class="st2" d="M468.38,248.33c5.81,51.74-6.35,64.09-42.21,98.04c-0.09-14.01,2.35-31.52,1.65-46.98"/>
	<line class="st2" x1="444.87" y1="279.36" x2="444.93" y2="279.31"/>
	<path class="st2" d="M441.67,283.11"/>
	<g>
		<path class="st4" d="M153.49,311.52c37.27-9.52,72.25-25.95,106.35-43.26c3.77,6.34,7.48,12.86,11.16,19.27
			c0.43,0.83,1.39,1.85,0.08,2.43c-19.25,10.06-39.01,19.22-58.96,27.8c-14.22,5.64-28.45,11.45-43.12,15.82
			c-1.48,0.37-1.52,0.38-2.36-0.96C162.29,325.53,157.67,318.72,153.49,311.52z"/>
		<path class="st4" d="M302.24,250.84c-0.15-0.75-0.01-1.54-0.79-2.03c0,0,0.01,0.02,0.01,0.02c0.06-0.32-0.01-0.58-0.34-0.71
			c0,0,0,0,0,0c-0.59-1.6-1.77-3.18-2.28-4.93c20.39-13.86,38.64-30.19,56.71-46.47c0.75,0.07,0.82,0.53,1,0.87
			c3.7,6.86,7.97,14.09,10.92,21.31c0.18,0.45-4.07,4.45-3.48,3.86c0.21-0.21-0.54,0.09-0.57,0.44c0,0-0.02,0.01-0.02,0.01
			c-0.21-0.01-0.33,0.09-0.36,0.3c0,0-0.01,0.01-0.01,0.01c-0.21,0-0.33,0.11-0.38,0.31c0,0,0.01-0.01,0.01-0.01
			c-0.2,0.03-0.33,0.13-0.38,0.33c0,0,0.01-0.01,0.01-0.01c-0.19,0.03-0.31,0.14-0.37,0.32c0,0-0.01,0-0.01,0
			c-0.31,0.02-0.56,0.11-0.58,0.47l-0.11-0.03c0.22,0.01-0.31,0.04-0.28,0.34c-0.12-0.06-0.36,0.13-0.38,0.32
			c-0.05-0.08-0.36,0.14-0.37,0.32c0,0,0.02-0.02,0.02-0.02c-0.2,0.03-0.33,0.15-0.39,0.35c0,0,0.02-0.02,0.02-0.02
			c-0.32,0-0.59,0.08-0.63,0.46c-1.09,0.19,4.41-5.11,4.88-3.82c-0.25-0.02-11.79,9.46-11.8,9.72c-0.19-0.05-0.38,0.16-0.4,0.37
			c-13.77,12.08-28.02,23.24-43.02,33.84c-1.66-2.67-2.41-5.93-3.63-8.6c0.13-0.16,0.01-0.61-0.3-0.72
			c0.28-0.65-0.44-1.13-0.69-1.65c0.05-0.33-0.01-0.61-0.33-0.78c0.17-0.35-0.33-0.61-0.38-0.94c0.09-0.63-0.04-1.17-0.63-1.51
			c-0.16-0.36,0.09-0.82-0.38-1.05C302.42,251.31,302.55,250.98,302.24,250.84z"/>
		<path class="st4" d="M126.55,344.16c-19.41,4.01-39.04,6.66-58.8,8.3c-1.03,0.11-1.4-0.51-1.83-1.25
			c-4.07-7.71-9.52-14.91-13.16-22.71c21.39-0.92,42.97-3.71,64.04-8.04c0.66-0.15,1.03-0.09,1.43,0.51
			c4.01,6.06,8.82,12.18,12.63,17.99c-0.09,0.09,0.1,0.38,0.29,0.39c0,0-0.02-0.02-0.02-0.02c0.02,0.21,0.14,0.34,0.34,0.38
			c-0.07,0.23,0.06,0.6,0.43,0.63c-0.09,0.11,0.08,0.37,0.28,0.39c0,0,0-0.01,0-0.01c0.07,0.38,0.14,0.77,0.2,1.14
			c-1.13,0.83-2.6,0.86-3.7,1.69c0,0,0.02-0.01,0.02-0.01c-0.51-0.04-1.04-0.15-1.41,0.36
			C127.12,343.82,126.71,343.91,126.55,344.16z"/>
		<path class="st4" d="M387.5,171.4c-0.32-0.48-0.64-0.96-0.96-1.44c0-0.29-0.1-0.52-0.41-0.6l0.06-0.07c0,0-0.05,0.07-0.05,0.07
			c-0.59-0.85-1.43-1.63-1.88-2.68c7.59-10.12,16.08-19.58,24.07-29.4c0.41-0.02,0.25-0.45,0.5-0.63c0.17-0.05,0.27-0.17,0.3-0.34
			l0,0c0.18-0.06,0.29-0.19,0.31-0.38c2.7-3.37,5.41-6.75,8.24-10.28c5.02,6.61,9.48,13.21,14.33,19.9
			c-11.71,13.97-22.35,28.77-33.91,42.85c-3.73-5.05-6.53-10.59-9.86-15.89c0-0.21-0.11-0.35-0.3-0.44
			C387.96,171.78,387.83,171.49,387.5,171.4z"/>
	</g>
	<path class="st3" d="M190.25,140.64c4.09-2.13,7.49-4.94,11.12-7.39c10.11-6.84,19.72-14.35,29.19-22.04
		c4.12-3.35,8.08-6.91,12-10.51c5.57-5.13,11.03-10.38,16.27-15.86c6.75-7.07,13.23-14.37,19.37-21.97c2.91-3.6,5.7-7.27,8.44-10.99
		c0.72-0.97,1.42-1.46,2.75-1.1c1.72,0.47,3.52,0.64,5.29,0.93c0.4,0.07,0.82,0.04,1.18,0.45c-2.49,3.23-4.65,6.71-7.19,9.93
		c-3.16,3.99-6.27,8.01-9.36,12.04c-1.93,2.53-4.07,4.88-6.17,7.27c-5.96,6.78-12.2,13.29-18.73,19.52
		c-5.85,5.59-11.91,10.96-18.1,16.17c-10.94,9.2-22.49,17.58-34.33,25.57c-1.72,1.16-3.5,2.24-5.25,3.38
		c-0.48,0.31-0.91,0.49-1.38,0C193.66,144.28,191.78,142.72,190.25,140.64z"/>
	<path class="st2" d="M373.37,362.02c-1.81-3.53-3.46-7.15-5.72-10.54c10.34-8.16,20.56-16.23,30.9-24.39
		c0.46,13.62-0.67,27.42-0.47,41.11c0.28,3.18-13.36,10.26-16.41,13.46c-3.09-6.05-4.85-12.95-8.04-19.08
		C373.71,362.31,373.59,362.14,373.37,362.02z"/>
	<path class="st3" d="M74.4,186.19c0.44,2.28,0.36,4.65,0.48,7c0.04,0.74-0.28,0.99-0.98,1.1c-3.42,0.53-6.82,1.19-10.25,1.63
		c-4.63,0.59-9.28,1.07-13.93,1.52c-3.91,0.38-7.82,0.65-11.73,0.96c-1.09,0.09-2.18,0.18-3.28,0.24c-1.3,0.07-1.4-0.02-1.42-1.28
		c-0.03-1.73-0.03-3.47-0.02-5.2c0.01-1.45,0.03-1.46,1.42-1.56c1.96-0.14,3.92-0.23,5.87-0.39c8.69-0.7,17.35-1.61,25.95-3.04
		c2.33-0.39,4.67-0.75,7-1.12C73.78,186,74.07,185.96,74.4,186.19z"/>
	<path class="st3" d="M111.81,176.71c2.38-0.9,4.74-1.82,7.11-2.68c7.64-2.79,15.29-5.56,22.94-8.33c0.27-0.1,0.55-0.18,0.82-0.27
		c1.51-0.48,1.51-0.48,2.29,0.82c1.04,1.74,2.37,3.27,3.64,4.92c-0.46,0.5-1.06,0.68-1.63,0.91c-9.14,3.73-18.37,7.21-27.57,10.78
		c-1.72,0.67-3.44,1.35-5.16,2.02c-0.42,0.17-0.82,0.46-1.39,0.22C112.32,182.39,112.17,179.57,111.81,176.71z"/>
</g>
<g class="st6">
</g>
<rect x="488.25" y="289.28" class="st5" width="1.05" height="2.1"/>
<g class="st6">
</g>
<path id="SVGID_x5F_1_x5F_" class="st5" d="M397.38,85.01c76.68,73.12,79.57,194.56,6.45,271.25s-194.56,79.57-271.25,6.45
	s-79.57-194.56-6.45-271.25S320.7,11.89,397.38,85.01z"/>
<text class="st6"><textPath  xlink:href="#SVGID_x5F_1_x5F_" startOffset="87.894%"  style="display:inline;">
<tspan  style="fill:#160049; font-family:'Calibri-Bold'; font-size:75px;">06 GLOBAL LOJİSTİK</tspan></textPath>
</text>
</svg>
